# xmcd
#
# Track frame offsets:
#	150
#	17906
#	34678
#	52492
#	71009
#	87986
#	106367
#	119573
#	134705
#	150362
#	166045
#	178035
#
# Disc length: 2577 seconds
#
# Revision: 1
# Processed by: cddbd v1.5.2PL0 Copyright (c) Steve Scherf et al.
# Submitted via: audiograbber 1.82.02
#
DISCID=a70a0f0c
DTITLE=Noel Parlane - No Limits
DYEAR=2006
DGENRE=Country
TTITLE0=I'mm Not Through Loving You
TTITLE1=Far Side Banks Of Jordon
TTITLE2=Cottage In The Country
TTITLE3=I Need To Hold Me Together
TTITLE4=Do It Again
TTITLE5=The Old Rugged Cross
TTITLE6=The Shade
TTITLE7=Rockin' Over River
TTITLE8=I Understand
TTITLE9=If Heartaches Meant Gold
TTITLE10=She Taught Me To Yodel
TTITLE11=Fly Like A Bird
EXTD=
EXTT0=
EXTT1=
EXTT2=
EXTT3=
EXTT4=
EXTT5=
EXTT6=
EXTT7=
EXTT8=
EXTT9=
EXTT10=
EXTT11=
PLAYORDER=
